<?xml version="1.0" encoding="utf-8"?>
<!-- Generator: Adobe Illustrator 22.1.0, SVG Export Plug-In . SVG Version: 6.00 Build 0)  -->
<svg version="1.1" id="logo" xmlns="http://www.w3.org/2000/svg" xmlns:xlink="http://www.w3.org/1999/xlink" x="0px" y="0px"
	 viewBox="0 0 141.7 141.7" style="enable-background:new 0 0 141.7 141.7;" xml:space="preserve">
<style type="text/css">
	.st0{fill:#FFFFFF;}
</style>
<path class="st0" d="M96.1,115.5l-7.2-12.4h-37l-7.2,12.4H27.3l-9.5-13.7L61.8,26h17.3l43.9,75.6l-9.6,13.9H96.1z M47,78.4
	l28.5-49.3H63.7L22.6,100h11.8l7.3-12.4H80l-5.4-9.2H47z M29.1,112.4h12.2l-6.4-9.2H22.7L29.1,112.4z M43.9,110.4l5.3-9.1l-6.4-9.1
	l-5.2,9.1L43.9,110.4z M45.7,90.8l6.5,9.2h38.7l7.2,12.4h11.8L78.2,57.9l-5.8,10l13.2,22.9H45.7z M78.2,51.4l34.5,59.5l6.5-9.2
	L78.3,31.1L52.6,75.3h11.5L78.2,51.4z M68.1,75.3h4.6l-2.3-4L68.1,75.3z"/>
</svg>
