<?xml version="1.0" encoding="utf-8"?>
<!-- Generator: Adobe Illustrator 23.0.0, SVG Export Plug-In . SVG Version: 6.00 Build 0)  -->
<svg version="1.1" id="图层_1" xmlns="http://www.w3.org/2000/svg" xmlns:xlink="http://www.w3.org/1999/xlink" x="0px" y="0px"
	 viewBox="0 0 512 512" style="enable-background:new 0 0 512 512;" xml:space="preserve">
<style type="text/css">
	.st0{fill:#FFE673;}
</style>
<path class="st0" d="M204.3,5C104.9,24.4,24.8,104.3,5.2,203.4c-37,187,131.7,326.4,258.8,306.7c41.2-6.4,61.4-54.6,42.5-91.7
	c-23.1-45.4,9.9-98.4,60.9-98.4h79.7c35.8,0,64.8-29.6,64.9-65.3C511.5,97.1,368.1-26.9,204.3,5z M96,320c-17.7,0-32-14.3-32-32
	s14.3-32,32-32s32,14.3,32,32S113.7,320,96,320z M128,192c-17.7,0-32-14.3-32-32s14.3-32,32-32s32,14.3,32,32S145.7,192,128,192z
	 M256,128c-17.7,0-32-14.3-32-32s14.3-32,32-32s32,14.3,32,32S273.7,128,256,128z M384,192c-17.7,0-32-14.3-32-32s14.3-32,32-32
	s32,14.3,32,32S401.7,192,384,192z"/>
</svg>
