<svg xmlns="http://www.w3.org/2000/svg" xmlns:xlink="http://www.w3.org/1999/xlink" version="1.1" x="0px" y="0px" viewBox="0 0 100 125" enable-background="new 0 0 100 100" xml:space="preserve"><g><path fill="#000000" d="M24.4,51.6h52.5c1.8,0,3.2-1.4,3.2-3.2V10.9c0-1.8-1.4-3.2-3.2-3.2H24.4c-1.8,0-3.2,1.4-3.2,3.2v37.5   C21.2,50.2,22.6,51.6,24.4,51.6z M73.7,45.2H27.6v-12l9.2,5.8c1.6,1,3.6,0.9,5-0.3l17.1-13.5c1.4-1.1,3.4-1.3,5-0.3l9.9,5.9V45.2z    M46.3,23.1c0,3.7-3,6.7-6.7,6.7c-3.7,0-6.7-3-6.7-6.7c0-3.7,3-6.7,6.7-6.7C43.3,16.4,46.3,19.4,46.3,23.1z"/><path fill="#000000" d="M91.2,88.6h-2.7V67.5c0,0,0,0,0,0c1.6-0.6,2.7-2.2,2.7-4c0-2.4-1.9-4.3-4.3-4.3s-4.3,1.9-4.3,4.3   c0,1.8,1.1,3.3,2.7,4c0,0,0,0,0,0c0,8.7-10.8,8.8-10.9,8.8c-1.6,0-4.2-0.4-6.5-1.7c-2.7-1.5-4.1-3.9-4.1-7.1c0,0,0,0,0,0   c1.6-0.6,2.7-2.2,2.7-4c0-2.4-1.9-4.3-4.3-4.3S58,61.1,58,63.5c0,1.8,1.1,3.3,2.7,4c0,0,0,0,0,0c0,8.7-10.8,8.8-10.9,8.8   c-1.6,0-4.2-0.4-6.5-1.7c-2.7-1.5-4.1-3.9-4.1-7.1c0-0.1,0-0.2,0-0.3c1.4-0.6,2.4-2,2.4-3.7c0-2.2-1.8-4-4-4c-2.2,0-4,1.8-4,4   c0,1.7,1,3.1,2.4,3.7c0,0.1,0,0.2,0,0.3c0,8.7-10.8,8.8-10.9,8.8c-1.6,0-4.2-0.4-6.5-1.7c-2.7-1.5-4.1-3.9-4.1-7.1c0,0,0,0,0,0   c1.6-0.6,2.7-2.2,2.7-4c0-2.4-1.9-4.3-4.3-4.3c-2.4,0-4.3,1.9-4.3,4.3c0,1.8,1.1,3.3,2.7,4c0,0,0,0,0,0v21.1H8.8   c-0.9,0-1.6,0.7-1.6,1.6c0,0.9,0.7,1.6,1.6,1.6h8.6c0.9,0,1.6-0.7,1.6-1.6c0-0.9-0.7-1.6-1.6-1.6h-2.7V75.5   c2.9,2.9,7.2,4.1,10.5,4.1c2.1,0,5.4-0.6,8.3-2.1c1-0.6,1.9-1.2,2.6-2v13.2h-2.7c-0.9,0-1.6,0.7-1.6,1.6c0,0.9,0.7,1.6,1.6,1.6H42   c0.9,0,1.6-0.7,1.6-1.6c0-0.9-0.7-1.6-1.6-1.6h-2.7V75.5c2.9,2.9,7.2,4.1,10.5,4.1c2.1,0,5.4-0.6,8.3-2.1c1-0.6,1.9-1.2,2.6-2v13.2   H58c-0.9,0-1.6,0.7-1.6,1.6c0,0.9,0.7,1.6,1.6,1.6h8.6c0.9,0,1.6-0.7,1.6-1.6c0-0.9-0.7-1.6-1.6-1.6h-2.7V75.4   c2.9,2.9,7.2,4.1,10.6,4.1c2.1,0,5.4-0.6,8.3-2.1c1-0.6,1.9-1.2,2.6-2v13.2h-2.7c-0.9,0-1.6,0.7-1.6,1.6c0,0.9,0.7,1.6,1.6,1.6h8.6   c0.9,0,1.6-0.7,1.6-1.6C92.8,89.4,92.1,88.6,91.2,88.6z"/></g><text x="0" y="115" fill="#000000" font-size="5px" font-weight="bold" font-family="'Helvetica Neue', Helvetica, Arial-Unicode, Arial, Sans-serif">Created by HeadsOfBirds</text><text x="0" y="120" fill="#000000" font-size="5px" font-weight="bold" font-family="'Helvetica Neue', Helvetica, Arial-Unicode, Arial, Sans-serif">from the Noun Project</text></svg>