<?xml version="1.0" encoding="utf-8"?>
<!-- Generator: Adobe Illustrator 23.0.0, SVG Export Plug-In . SVG Version: 6.00 Build 0)  -->
<svg version="1.1" id="图层_1" xmlns="http://www.w3.org/2000/svg" xmlns:xlink="http://www.w3.org/1999/xlink" x="0px" y="0px"
	 viewBox="0 0 512 512" style="enable-background:new 0 0 512 512;" xml:space="preserve">
<style type="text/css">
	.st0{fill:#FF7976;}
</style>
<g>
	<path class="st0" d="M20.7,247.7c0-132.2,89.2-226,203.9-226c81.4,0,155,52.1,186.9,121.2l-46.2,44.3
		c-22.1-64.5-74.9-109.4-138.1-109.4c-90.5,0-145.9,83.4-145.9,170c0,125,94.4,212.2,222.7,212.2c48.2,0,89.2-11.7,121.8-29.3
		c-54.1,47.5-106.2,60.6-160.2,60.6C140.5,491.3,20.7,406.6,20.7,247.7z M483.8,361.7c-28.7,39.7-87.3,80.8-179.8,80.8
		c-117.9,0-205.2-78.8-205.2-194.8c0-82.1,50.8-152.4,128.3-152.4c18.2,0,36.5,4.6,52.1,12.4C218,113.5,159.4,156.5,159.4,249
		S231.1,390.3,304,390.3c60.6,0,96.4-22.8,119.2-46.9v-99h60.6L483.8,361.7L483.8,361.7z M487.1,136.3h-59.9
		C401.1,81,356.1,41.2,306,20.4C381.5,23,451.2,66.6,487.1,136.3z M352.9,302.4l52.8-46.9v80.1c-12.4,12.4-29.3,24.1-52.8,31.3
		V302.4z M433,193.6h-50.8l44.3-39.7h50.8L433,193.6z"/>
</g>
</svg>
