<?xml version="1.0" encoding="utf-8"?>
<!-- Generator: Adobe Illustrator 23.0.0, SVG Export Plug-In . SVG Version: 6.00 Build 0)  -->
<svg version="1.1" id="图层_1" xmlns="http://www.w3.org/2000/svg" xmlns:xlink="http://www.w3.org/1999/xlink" x="0px" y="0px"
	 viewBox="0 0 512 512" style="enable-background:new 0 0 512 512;" xml:space="preserve">
<style type="text/css">
	.st0{fill:#83E58B;}
</style>
<g>
	<path class="st0" d="M128.2,407.3c13.7,34.5,40.4,67.1,81.4,85.3c-56-0.7-118.5-31.3-141.3-85.3H128.2z M124.3,350h50.8l-44.3,39.7
		H80L124.3,350z M247.4,322l-84.7-56.7C124.9,240.5,93,203.4,93,146.7c0-81.4,70.3-125.1,140-125.1c77.5,0,127,41.7,144,89.9
		l-48.9,43c-12.4-47.5-46.2-76.9-97.1-76.9c-43.6,0-77.5,26.7-77.5,69.7c0,35.8,22.8,63.2,58.6,87.3l81.4,53.4
		c34.5,22.8,57.3,44.3,57.3,77.5s-26.1,52.1-59.9,52.1h-7.2c3.9-7.8,6.5-17.6,6.5-29.3C290.3,359.7,275.4,340.2,247.4,322z
		 M368.5,365.6c0-35.8-22.8-63.8-59.3-87.9l-82.7-54.1c-32.6-21.5-55.4-43-55.4-76.2s26.1-52.1,59.9-52.1c2,0,4.6,0,6.5,0.7
		c-3.9,7.8-5.9,16.9-5.9,28.7c0,28.7,15,48.2,44.9,67.7l82.1,54.7c39.7,26.7,70.3,62.5,70.3,119.2c0,74.9-57.3,125.1-140,125.1
		c-78.2,0-127-41.7-144-89.9l48.9-43.6c11.7,48.2,45.6,77.5,97.1,77.5C334.6,435.3,368.5,408.6,368.5,365.6z M393.9,105.7
		c-14.3-34.5-41-66.4-81.4-85.3C367.9,21,431,52.3,453.8,105.7H393.9z M397.8,163H347l44.3-39.7h50.8L397.8,163z"/>
</g>
</svg>
