<?xml version="1.0" encoding="utf-8"?>
<!-- Generator: Adobe Illustrator 22.1.0, SVG Export Plug-In . SVG Version: 6.00 Build 0)  -->
<svg version="1.1" id="图层_1" xmlns="http://www.w3.org/2000/svg" xmlns:xlink="http://www.w3.org/1999/xlink" x="0px" y="0px"
	 viewBox="0 0 100 125" style="enable-background:new 0 0 100 125;" xml:space="preserve">
<path d="M86.7,71.1l-73.4-0.3c-4.6,0-8.3,1-8.3,5.6s3.7,5.5,8.3,5.5L86.8,82c4.6,0,8.3-1,8.3-5.6C95,71.8,91.3,71.1,86.7,71.1z"/>
<path d="M86.8,44.5l-73.4-0.3c-4.6,0-8.3,1-8.3,5.6s3.7,5.5,8.3,5.5l73.5,0.1c4.6,0,8.3-1,8.3-5.6C95.1,45.3,91.4,44.5,86.8,44.5z"
	/>
<path d="M86.7,18.2L13.3,18C8.7,18,5,19,5,23.6s3.7,5.5,8.3,5.5l73.5,0.1c4.6,0,8.3-1,8.3-5.6C95,19,91.3,18.2,86.7,18.2z"/>
</svg>
