<svg xmlns="http://www.w3.org/2000/svg" xmlns:xlink="http://www.w3.org/1999/xlink" version="1.1" x="0px" y="0px" viewBox="0 0 100 125" enable-background="new 0 0 100 100" xml:space="preserve"><g><path d="M50,22.927C35.047,22.928,22.928,35.047,22.927,50C22.928,64.953,35.047,77.072,50,77.073   C64.953,77.072,77.072,64.953,77.073,50C77.072,35.047,64.953,22.928,50,22.927z M67.074,67.074   C62.7,71.446,56.672,74.146,50,74.146c-6.673-0.001-12.7-2.7-17.074-7.072C28.554,62.7,25.854,56.672,25.854,50   c0.001-6.673,2.7-12.7,7.072-17.074C37.3,28.554,43.328,25.854,50,25.854c6.672,0.001,12.7,2.7,17.074,7.072   C71.446,37.3,74.146,43.328,74.146,50C74.146,56.672,71.446,62.7,67.074,67.074z"/><circle cx="50.147" cy="50" r="19.547"/></g><text x="0" y="115" fill="#000000" font-size="5px" font-weight="bold" font-family="'Helvetica Neue', Helvetica, Arial-Unicode, Arial, Sans-serif">Created by Viktor Ostrovsky</text><text x="0" y="120" fill="#000000" font-size="5px" font-weight="bold" font-family="'Helvetica Neue', Helvetica, Arial-Unicode, Arial, Sans-serif">from the Noun Project</text></svg>