<?xml version="1.0" encoding="utf-8"?>
<!-- Generator: Adobe Illustrator 22.1.0, SVG Export Plug-In . SVG Version: 6.00 Build 0)  -->
<svg version="1.1" id="图层_1" xmlns="http://www.w3.org/2000/svg" xmlns:xlink="http://www.w3.org/1999/xlink" x="0px" y="0px"
	 viewBox="0 0 100 125" style="enable-background:new 0 0 100 125;" xml:space="preserve">
<title>TiNY2_EXTRAS</title>
<path d="M86.6,5H21.9c-6.2,0-11.2,5-11.2,11.2v67.5c0,6.2,5,11.2,11.2,11.3h64.7c1.6,0,2.8-1.3,2.8-2.8V7.8C89.4,6.3,88.1,5,86.6,5z
	 M21.9,89.4c-3.1,0-5.6-2.5-5.6-5.6V16.2c0-3.1,2.5-5.6,5.6-5.6h5.6v78.8H21.9z M83.8,89.4H33.1V10.6h22.5v26.7l8.4-8.4l8.4,8.4
	V10.6h11.2L83.8,89.4z"/>
</svg>
