<svg xmlns="http://www.w3.org/2000/svg" xmlns:xlink="http://www.w3.org/1999/xlink" xml:space="preserve" version="1.1" style="shape-rendering:geometricPrecision;text-rendering:geometricPrecision;image-rendering:optimizeQuality;" viewBox="0 0 351 507.5" x="0px" y="0px" fill-rule="evenodd" clip-rule="evenodd"><defs><style type="text/css">
   
    .fil0 {fill:black;fill-rule:nonzero}
   
  </style></defs><g><path class="fil0" d="M176 0c52,0 94,42 94,94 0,52 -42,94 -94,94 -52,0 -95,-42 -95,-94 0,-52 43,-94 95,-94zm0 25c-38,0 -69,31 -69,69 0,38 31,69 69,69 38,0 68,-31 68,-69 0,-38 -30,-69 -68,-69z"/><path class="fil0" d="M176 218c101,0 182,86 175,188l-26 0c7,-88 -62,-163 -149,-163 -88,0 -157,75 -150,163l-26 0c-7,-102 74,-188 176,-188z"/></g><text x="0" y="421" fill="#000000" font-size="5px" font-weight="bold" font-family="'Helvetica Neue', Helvetica, Arial-Unicode, Arial, Sans-serif">Created by iejank</text><text x="0" y="426" fill="#000000" font-size="5px" font-weight="bold" font-family="'Helvetica Neue', Helvetica, Arial-Unicode, Arial, Sans-serif">from the Noun Project</text></svg>