<?xml version="1.0" encoding="utf-8"?>
<!-- Generator: Adobe Illustrator 22.1.0, SVG Export Plug-In . SVG Version: 6.00 Build 0)  -->
<svg version="1.1" xmlns="http://www.w3.org/2000/svg" xmlns:xlink="http://www.w3.org/1999/xlink" x="0px" y="0px"
	 viewBox="0 0 100 125" style="enable-background:new 0 0 100 125;" xml:space="preserve">
<g id="图层_2">
</g>
<g id="图层_1">
	<g>
		<path d="M84.5,2.5h-69C9.7,2.5,5,7.2,5,13.1v54c0,5.8,4.7,10.6,10.6,10.6H33L42.1,93c1.7,2.8,4.6,4.5,7.9,4.5s6.2-1.7,7.9-4.5
			L67,77.6h17.5c5.8,0,10.6-4.7,10.6-10.6V13C95,7.2,90.3,2.5,84.5,2.5z M86.7,67.1c0,1.2-1,2.2-2.2,2.2H64.6c-1.5,0-2.8,0.8-3.6,2
			L50.7,88.8c-0.3,0.5-1,0.5-1.3,0L39,71.3c-0.8-1.3-2.1-2-3.6-2H15.5c-1.2,0-2.2-1-2.2-2.2v-54c0-1.2,1-2.2,2.2-2.2h68.9
			c1.2,0,2.2,1,2.2,2.2L86.7,67.1L86.7,67.1z"/>
		<path d="M67.2,34.4l-10.4-1.5c-0.3,0-0.5-0.2-0.7-0.5l-4.8-9.6c-0.5-1.1-2.1-1.1-2.6,0L44,32.3c-0.1,0.3-0.4,0.4-0.7,0.5
			l-10.6,1.5c-1.2,0.2-1.7,1.6-0.8,2.5l7.5,7.4c0.2,0.2,0.3,0.5,0.3,0.8L38,55.5c-0.2,1.2,1.1,2.1,2.1,1.5l9.3-4.9
			c0.3-0.1,0.6-0.1,0.8,0l9.5,5c1.1,0.6,2.3-0.3,2.1-1.5L60,45.2c0-0.3,0-0.6,0.3-0.8l7.7-7.5C68.9,36,68.4,34.6,67.2,34.4z"/>
	</g>
</g>
</svg>
